<svg xmlns="http://www.w3.org/2000/svg" viewBox="0 0 1440 320"> <path fill="#fff" fill-opacity="1" d="M0,160L34.3,160C68.6,160,137,160,206,138.7C274.3,117,343,75,411,80C480,85,549,139,617,149.3C685.7,160,754,128,823,122.7C891.4,117,960,139,1029,138.7C1097.1,139,1166,117,1234,117.3C1302.9,117,1371,139,1406,149.3L1440,160L1440,0L1405.7,0C1371.4,0,1303,0,1234,0C1165.7,0,1097,0,1029,0C960,0,891,0,823,0C754.3,0,686,0,617,0C548.6,0,480,0,411,0C342.9,0,274,0,206,0C137.1,0,69,0,34,0L0,0Z" ></path> </svg>