<svg id="visual" viewBox="0 0 900 450" width="900" height="450" xmlns="http://www.w3.org/2000/svg" xmlns:xlink="http://www.w3.org/1999/xlink" version="1.1"><path d="M0 320L21.5 329.2C43 338.3 86 356.7 128.8 351.7C171.7 346.7 214.3 318.3 257.2 317.8C300 317.3 343 344.7 385.8 351.5C428.7 358.3 471.3 344.7 514.2 340.3C557 336 600 341 642.8 350.7C685.7 360.3 728.3 374.7 771.2 381.2C814 387.7 857 386.3 878.5 385.7L900 385L900 451L878.5 451C857 451 814 451 771.2 451C728.3 451 685.7 451 642.8 451C600 451 557 451 514.2 451C471.3 451 428.7 451 385.8 451C343 451 300 451 257.2 451C214.3 451 171.7 451 128.8 451C86 451 43 451 21.5 451L0 451Z" fill="#FFF" stroke-linecap="round" stroke-linejoin="miter"></path></svg>